<svg id="svg" version="1.1" xmlns="http://www.w3.org/2000/svg" xmlns:xlink="http://www.w3.org/1999/xlink" width="400" height="369.32907348242816" viewBox="0, 0, 400,369.32907348242816"><g id="svgg"><path id="path0" d="M337.950 31.940 L 337.950 46.907 345.157 46.907 L 352.363 46.907 352.266 32.041 L 352.170 17.175 345.060 17.074 L 337.950 16.974 337.950 31.940 M169.075 40.166 L 168.975 47.830 153.740 47.927 L 138.504 48.023 138.504 55.590 L 138.504 63.158 130.933 63.158 L 123.361 63.158 123.361 70.471 C 123.361 79.528,124.218 78.670,115.166 78.670 L 107.857 78.670 107.760 93.906 L 107.664 109.141 100.185 109.241 L 92.705 109.341 92.705 139.405 C 92.705 155.940,92.605 169.732,92.481 170.053 C 92.287 170.559,91.253 170.637,84.725 170.637 L 77.193 170.637 77.193 208.864 L 77.193 247.091 69.626 247.091 L 62.058 247.091 61.962 262.327 L 61.865 277.562 54.209 277.662 L 46.552 277.762 46.453 285.418 L 46.353 293.075 38.881 293.175 L 31.410 293.275 31.310 300.746 L 31.210 308.218 23.546 308.318 L 15.882 308.418 15.882 315.612 L 15.882 322.807 38.742 322.807 C 59.246 322.807,61.625 322.867,61.826 323.391 C 61.949 323.713,62.050 327.202,62.050 331.145 L 62.050 338.315 92.613 338.410 L 123.176 338.504 123.276 345.983 L 123.376 353.463 176.554 353.463 L 229.732 353.463 229.732 345.891 L 229.732 338.319 237.304 338.319 L 244.875 338.319 244.875 331.117 L 244.875 323.915 237.311 323.915 L 229.747 323.915 229.647 316.251 L 229.548 308.587 221.884 308.487 L 214.220 308.388 214.220 300.824 L 214.220 293.259 206.655 293.259 C 199.116 293.259,199.090 293.257,198.889 292.428 C 198.779 291.971,198.734 281.459,198.790 269.067 L 198.892 246.537 206.548 246.438 L 214.205 246.338 214.305 238.681 L 214.404 231.025 222.061 230.925 L 229.717 230.825 229.817 223.169 L 229.917 215.512 237.388 215.413 L 244.860 215.313 244.960 207.841 L 245.060 200.369 276.085 200.369 L 307.110 200.369 307.210 207.841 L 307.310 215.313 314.781 215.413 L 322.253 215.512 322.353 223.169 L 322.453 230.825 330.109 230.925 L 337.765 231.025 337.865 238.689 L 337.965 246.353 352.724 246.353 L 367.483 246.353 367.583 238.689 L 367.682 231.025 375.346 230.925 L 383.010 230.825 383.010 185.403 L 383.010 139.982 375.838 139.982 C 366.469 139.982,367.498 140.966,367.498 132.005 L 367.498 124.477 352.262 124.381 L 337.027 124.284 336.927 116.805 L 336.827 109.326 314.304 109.326 L 291.782 109.326 291.782 124.092 L 291.782 138.859 299.446 138.958 L 307.110 139.058 307.210 146.530 L 307.310 154.001 314.781 154.101 L 322.253 154.201 322.353 161.858 L 322.453 169.514 330.109 169.614 L 337.765 169.714 337.865 177.747 L 337.965 185.780 329.832 185.780 L 321.699 185.780 321.699 178.209 L 321.699 170.637 306.371 170.637 L 291.043 170.637 291.043 162.888 L 291.043 155.140 283.380 155.040 L 275.716 154.940 275.616 147.461 L 275.516 139.982 252.993 139.982 L 230.471 139.982 230.471 147.553 L 230.471 155.125 222.907 155.125 L 215.343 155.125 215.243 162.789 L 215.143 170.452 207.479 170.552 L 199.815 170.652 199.815 178.216 L 199.815 185.780 192.248 185.780 L 184.680 185.780 184.584 201.016 L 184.488 216.251 176.824 216.351 L 169.160 216.451 169.160 223.638 L 169.160 230.825 176.824 230.925 L 184.488 231.025 184.488 246.722 L 184.488 262.419 176.573 262.519 C 170.488 262.596,168.590 262.510,168.361 262.150 C 168.197 261.892,168.060 258.398,168.057 254.386 L 168.052 247.091 161.042 247.091 L 154.032 247.091 153.932 254.755 L 153.832 262.419 130.479 262.514 L 107.125 262.609 106.920 261.776 C 106.808 261.317,106.763 257.701,106.820 253.740 L 106.925 246.537 122.161 246.441 L 137.396 246.345 137.396 231.390 L 137.396 216.436 129.817 216.436 L 122.239 216.436 122.338 208.403 L 122.438 200.369 145.241 200.274 L 168.044 200.179 168.140 184.946 L 168.236 169.714 175.893 169.614 L 183.549 169.514 183.649 161.858 L 183.749 154.201 191.220 154.101 L 198.692 154.001 198.792 146.530 L 198.892 139.058 206.556 138.958 L 214.220 138.859 214.220 131.664 L 214.220 124.469 176.369 124.469 L 138.519 124.469 138.419 132.133 L 138.319 139.797 123.035 139.893 C 112.058 139.963,107.607 139.872,107.245 139.571 C 106.561 139.004,106.505 124.483,107.184 123.804 C 107.499 123.489,109.745 123.361,114.940 123.361 L 122.253 123.361 122.253 115.789 L 122.253 108.218 137.573 108.218 L 152.894 108.218 152.993 100.554 L 153.093 92.890 222.068 92.797 L 291.043 92.704 291.043 85.687 L 291.043 78.670 283.871 78.670 C 274.502 78.670,275.531 79.655,275.531 70.690 L 275.531 63.158 267.959 63.158 L 260.388 63.158 260.388 55.590 L 260.388 48.023 245.152 47.927 L 229.917 47.830 229.817 40.166 L 229.717 32.502 199.446 32.502 L 169.175 32.502 169.075 40.166 " stroke="none" fill="#04c43c" fill-rule="evenodd"></path><path id="path1" d="M321.330 31.394 L 321.330 62.050 313.758 62.050 L 306.187 62.050 306.187 69.621 L 306.187 77.193 299.169 77.193 L 292.151 77.193 292.151 69.621 L 292.151 62.050 284.395 62.050 L 276.639 62.050 276.639 54.294 L 276.639 46.537 269.067 46.537 L 261.496 46.537 261.496 38.966 L 261.496 31.394 246.176 31.394 L 230.855 31.394 230.755 23.730 L 230.656 16.066 199.354 15.972 L 168.052 15.878 168.052 23.636 L 168.052 31.394 152.724 31.394 L 137.396 31.394 137.396 38.958 L 137.396 46.522 129.732 46.622 L 122.068 46.722 121.968 54.386 L 121.869 62.050 114.305 62.050 L 106.741 62.050 106.741 69.614 L 106.741 77.178 99.077 77.278 L 91.413 77.378 91.316 92.613 L 91.220 107.849 83.652 107.849 L 76.085 107.849 76.085 138.497 L 76.085 169.145 68.421 169.245 L 60.757 169.344 60.663 207.664 L 60.569 245.983 52.999 245.983 L 45.429 245.983 45.429 261.311 L 45.429 276.639 37.673 276.639 L 29.917 276.639 29.917 284.395 L 29.917 292.151 22.345 292.151 L 14.774 292.151 14.774 299.723 L 14.774 307.295 7.387 307.295 L 0.000 307.295 0.000 315.605 L 0.000 323.915 7.387 323.915 L 14.774 323.915 14.774 331.671 L 14.774 339.428 37.673 339.428 L 60.572 339.428 60.572 346.999 L 60.572 354.571 91.228 354.571 L 121.884 354.571 121.884 361.958 L 121.884 369.344 176.362 369.344 L 230.840 369.344 230.840 361.958 L 230.840 354.571 238.412 354.571 L 245.983 354.571 245.983 346.999 L 245.983 339.428 261.311 339.428 L 276.639 339.428 276.639 331.117 L 276.639 322.807 261.311 322.807 L 245.983 322.807 245.983 315.051 L 245.983 307.295 238.412 307.295 L 230.840 307.295 230.840 299.723 L 230.840 292.151 223.084 292.151 L 215.328 292.151 215.328 269.814 L 215.328 247.476 222.992 247.376 L 230.656 247.276 230.755 239.612 L 230.855 231.948 238.419 231.948 L 245.983 231.948 245.983 224.377 L 245.983 216.805 276.085 216.805 L 306.187 216.805 306.187 224.377 L 306.187 231.948 313.751 231.948 L 321.315 231.948 321.414 239.612 L 321.514 247.276 329.178 247.376 L 336.842 247.476 336.842 270.368 L 336.842 293.259 345.152 293.259 L 353.463 293.259 353.463 285.696 L 353.463 278.132 360.942 278.032 L 368.421 277.932 368.521 270.268 L 368.621 262.604 376.369 262.604 L 384.118 262.604 384.118 247.276 L 384.118 231.948 391.690 231.948 L 399.261 231.948 399.261 185.226 L 399.261 138.504 391.690 138.504 L 384.118 138.504 384.118 130.933 L 384.118 123.361 376.362 123.361 L 368.606 123.361 368.606 115.605 L 368.606 107.849 353.278 107.849 L 337.950 107.849 337.950 100.277 L 337.950 92.705 330.379 92.705 L 322.807 92.705 322.807 85.688 L 322.807 78.670 330.379 78.670 L 337.950 78.670 337.950 70.914 L 337.950 63.158 345.706 63.158 L 353.463 63.158 353.463 55.586 L 353.463 48.015 361.034 48.015 L 368.606 48.015 368.606 31.948 L 368.606 15.882 361.034 15.882 L 353.463 15.882 353.463 8.310 L 353.463 0.739 337.396 0.739 L 321.330 0.739 321.330 31.394 M352.724 31.956 L 352.724 47.291 345.060 47.191 L 337.396 47.091 337.299 32.318 C 337.246 24.193,337.283 17.337,337.380 17.083 C 337.514 16.733,339.410 16.620,345.141 16.620 L 352.724 16.620 352.724 31.956 M230.186 39.612 L 230.286 47.091 245.429 47.276 L 260.572 47.461 260.673 54.635 C 260.799 63.593,259.965 62.751,268.829 62.873 L 276.085 62.973 276.185 70.445 L 276.285 77.916 283.756 78.016 L 291.228 78.116 291.228 85.688 L 291.228 93.259 222.345 93.444 L 153.463 93.629 153.363 101.108 L 153.263 108.587 138.357 108.587 C 126.429 108.587,123.370 108.685,123.045 109.077 C 122.789 109.386,122.602 112.211,122.538 116.741 L 122.438 123.915 115.051 124.100 L 107.664 124.284 107.664 131.671 L 107.664 139.058 122.807 139.058 L 137.950 139.058 138.050 131.577 L 138.150 124.096 176.462 124.190 L 214.774 124.284 214.774 131.671 L 214.774 139.058 207.202 139.243 L 199.631 139.428 199.446 146.999 L 199.261 154.571 191.690 154.755 L 184.118 154.940 184.018 162.412 L 183.918 169.883 176.447 169.983 L 168.975 170.083 168.879 185.319 L 168.782 200.554 146.145 200.554 C 129.032 200.554,123.401 200.662,123.066 200.997 C 122.560 201.503,122.428 214.820,122.922 215.597 C 123.130 215.925,125.250 216.078,130.580 216.151 L 137.950 216.251 137.950 231.394 L 137.950 246.537 122.807 246.722 L 107.664 246.907 107.664 254.294 L 107.664 261.681 130.463 261.776 L 153.263 261.871 153.363 254.389 L 153.463 246.907 161.034 246.907 L 168.606 246.907 168.790 254.294 L 168.975 261.681 176.454 261.781 L 183.934 261.880 183.934 246.737 L 183.934 231.594 176.454 231.494 L 168.975 231.394 168.875 223.738 L 168.775 216.082 176.262 215.982 L 183.749 215.882 183.934 200.739 L 184.118 185.596 191.690 185.411 L 199.261 185.226 199.446 177.655 L 199.631 170.083 207.102 169.983 L 214.574 169.883 214.674 162.412 L 214.774 154.940 222.345 154.736 C 226.510 154.624,229.955 154.499,230.002 154.459 C 230.048 154.419,230.131 151.020,230.186 146.907 L 230.286 139.428 252.775 139.332 C 268.874 139.264,275.404 139.354,275.759 139.648 C 276.136 139.961,276.278 141.795,276.354 147.315 L 276.454 154.571 283.841 154.755 L 291.228 154.940 291.413 162.327 L 291.597 169.714 306.841 169.810 L 322.084 169.907 321.984 162.423 L 321.884 154.940 314.628 154.840 C 305.764 154.718,306.597 155.560,306.472 146.602 L 306.371 139.428 298.888 139.328 L 291.405 139.228 291.501 124.000 L 291.597 108.772 314.404 108.677 C 326.948 108.624,337.244 108.624,337.284 108.677 C 337.325 108.729,337.449 112.179,337.561 116.343 L 337.765 123.915 352.909 124.100 L 368.052 124.284 368.152 131.756 L 368.252 139.228 375.723 139.328 L 383.195 139.428 383.195 185.411 L 383.195 231.394 375.723 231.494 L 368.252 231.594 368.152 239.066 L 368.052 246.537 352.724 246.537 L 337.396 246.537 337.296 239.066 L 337.196 231.594 329.725 231.494 L 322.253 231.394 322.068 223.823 L 321.884 216.251 314.312 216.066 L 306.741 215.882 306.556 208.310 L 306.371 200.739 276.085 200.739 L 245.799 200.739 245.614 208.310 L 245.429 215.882 237.858 216.066 L 230.286 216.251 230.102 223.823 L 229.917 231.394 222.445 231.494 L 214.974 231.594 214.874 239.066 L 214.774 246.537 207.202 246.722 L 199.631 246.907 199.536 269.714 L 199.440 292.521 206.785 292.521 C 215.770 292.521,214.917 291.678,215.043 300.674 L 215.143 307.849 222.530 308.033 L 229.917 308.218 230.017 315.697 L 230.117 323.176 237.451 323.176 C 246.497 323.176,245.657 322.326,245.530 331.350 L 245.429 338.504 237.858 338.689 L 230.286 338.873 230.102 346.445 L 229.917 354.017 176.362 354.017 L 122.807 354.017 122.622 346.445 L 122.438 338.873 91.967 338.689 L 61.496 338.504 61.311 331.117 L 61.127 323.730 38.412 323.546 L 15.697 323.361 15.597 315.705 L 15.498 308.049 22.984 307.949 L 30.471 307.849 30.656 300.277 L 30.840 292.705 38.412 292.521 L 45.983 292.336 46.083 284.865 L 46.183 277.393 53.655 277.293 L 61.127 277.193 61.311 262.050 L 61.496 246.907 68.866 246.806 C 74.196 246.734,76.316 246.580,76.524 246.252 C 76.683 246.003,76.815 228.725,76.818 207.856 L 76.824 169.914 84.303 169.814 L 91.782 169.714 91.967 139.243 L 92.151 108.772 99.723 108.587 L 107.295 108.403 107.479 93.259 L 107.664 78.116 115.051 77.932 L 122.438 77.747 122.538 70.268 L 122.638 62.789 129.943 62.789 C 138.991 62.789,138.135 63.645,138.135 54.593 L 138.135 47.284 153.370 47.188 L 168.606 47.091 168.706 39.612 L 168.806 32.133 199.446 32.133 L 230.086 32.133 230.186 39.612 M322.236 170.363 C 322.135 170.627,322.097 174.080,322.152 178.035 L 322.253 185.226 329.640 185.226 L 337.027 185.226 337.027 177.655 L 337.027 170.083 329.724 169.983 C 323.998 169.904,322.381 169.986,322.236 170.363 " stroke="none" fill="#048404" fill-rule="evenodd"></path><path id="path2" d="M337.380 17.083 C 337.283 17.337,337.246 24.193,337.299 32.318 L 337.396 47.091 345.060 47.191 L 352.724 47.291 352.724 31.956 L 352.724 16.620 345.141 16.620 C 339.410 16.620,337.514 16.733,337.380 17.083 M352.266 32.041 L 352.363 46.907 345.157 46.907 L 337.950 46.907 337.950 31.940 L 337.950 16.974 345.060 17.074 L 352.170 17.175 352.266 32.041 M168.706 39.612 L 168.606 47.091 153.370 47.188 L 138.135 47.284 138.135 54.593 C 138.135 63.645,138.991 62.789,129.943 62.789 L 122.638 62.789 122.538 70.268 L 122.438 77.747 115.051 77.932 L 107.664 78.116 107.479 93.259 L 107.295 108.403 99.723 108.587 L 92.151 108.772 91.967 139.243 L 91.782 169.714 84.303 169.814 L 76.824 169.914 76.818 207.856 C 76.815 228.725,76.683 246.003,76.524 246.252 C 76.316 246.580,74.196 246.734,68.866 246.806 L 61.496 246.907 61.311 262.050 L 61.127 277.193 53.655 277.293 L 46.183 277.393 46.083 284.865 L 45.983 292.336 38.412 292.521 L 30.840 292.705 30.656 300.277 L 30.471 307.849 22.984 307.949 L 15.498 308.049 15.597 315.705 L 15.697 323.361 38.412 323.546 L 61.127 323.730 61.311 331.117 L 61.496 338.504 91.967 338.689 L 122.438 338.873 122.622 346.445 L 122.807 354.017 176.362 354.017 L 229.917 354.017 230.102 346.445 L 230.286 338.873 237.858 338.689 L 245.429 338.504 245.530 331.350 C 245.657 322.326,246.497 323.176,237.451 323.176 L 230.117 323.176 230.017 315.697 L 229.917 308.218 222.530 308.033 L 215.143 307.849 215.043 300.674 C 214.917 291.678,215.770 292.521,206.785 292.521 L 199.440 292.521 199.536 269.714 L 199.631 246.907 207.202 246.722 L 214.774 246.537 214.874 239.066 L 214.974 231.594 222.445 231.494 L 229.917 231.394 230.102 223.823 L 230.286 216.251 237.858 216.066 L 245.429 215.882 245.614 208.310 L 245.799 200.739 276.085 200.739 L 306.371 200.739 306.556 208.310 L 306.741 215.882 314.312 216.066 L 321.884 216.251 322.068 223.823 L 322.253 231.394 329.725 231.494 L 337.196 231.594 337.296 239.066 L 337.396 246.537 352.724 246.537 L 368.052 246.537 368.152 239.066 L 368.252 231.594 375.723 231.494 L 383.195 231.394 383.195 185.411 L 383.195 139.428 375.723 139.328 L 368.252 139.228 368.152 131.756 L 368.052 124.284 352.909 124.100 L 337.765 123.915 337.561 116.343 C 337.449 112.179,337.325 108.729,337.284 108.677 C 337.244 108.624,326.948 108.624,314.404 108.677 L 291.597 108.772 291.501 124.000 L 291.405 139.228 298.888 139.328 L 306.371 139.428 306.472 146.602 C 306.597 155.560,305.764 154.718,314.628 154.840 L 321.884 154.940 321.984 162.423 L 322.084 169.907 306.841 169.810 L 291.597 169.714 291.413 162.327 L 291.228 154.940 283.841 154.755 L 276.454 154.571 276.354 147.315 C 276.278 141.795,276.136 139.961,275.759 139.648 C 275.404 139.354,268.874 139.264,252.775 139.332 L 230.286 139.428 230.186 146.907 C 230.131 151.020,230.048 154.419,230.002 154.459 C 229.955 154.499,226.510 154.624,222.345 154.736 L 214.774 154.940 214.674 162.412 L 214.574 169.883 207.102 169.983 L 199.631 170.083 199.446 177.655 L 199.261 185.226 191.690 185.411 L 184.118 185.596 183.934 200.739 L 183.749 215.882 176.262 215.982 L 168.775 216.082 168.875 223.738 L 168.975 231.394 176.454 231.494 L 183.934 231.594 183.934 246.737 L 183.934 261.880 176.454 261.781 L 168.975 261.681 168.790 254.294 L 168.606 246.907 161.034 246.907 L 153.463 246.907 153.363 254.389 L 153.263 261.871 130.463 261.776 L 107.664 261.681 107.664 254.294 L 107.664 246.907 122.807 246.722 L 137.950 246.537 137.950 231.394 L 137.950 216.251 130.580 216.151 C 125.250 216.078,123.130 215.925,122.922 215.597 C 122.428 214.820,122.560 201.503,123.066 200.997 C 123.401 200.662,129.032 200.554,146.145 200.554 L 168.782 200.554 168.879 185.319 L 168.975 170.083 176.447 169.983 L 183.918 169.883 184.018 162.412 L 184.118 154.940 191.690 154.755 L 199.261 154.571 199.446 146.999 L 199.631 139.428 207.202 139.243 L 214.774 139.058 214.774 131.671 L 214.774 124.284 176.462 124.190 L 138.150 124.096 138.050 131.577 L 137.950 139.058 122.807 139.058 L 107.664 139.058 107.664 131.671 L 107.664 124.284 115.051 124.100 L 122.438 123.915 122.538 116.741 C 122.602 112.211,122.789 109.386,123.045 109.077 C 123.370 108.685,126.429 108.587,138.357 108.587 L 153.263 108.587 153.363 101.108 L 153.463 93.629 222.345 93.444 L 291.228 93.259 291.228 85.688 L 291.228 78.116 283.756 78.016 L 276.285 77.916 276.185 70.445 L 276.085 62.973 268.829 62.873 C 259.965 62.751,260.799 63.593,260.673 54.635 L 260.572 47.461 245.429 47.276 L 230.286 47.091 230.186 39.612 L 230.086 32.133 199.446 32.133 L 168.806 32.133 168.706 39.612 M229.817 40.166 L 229.917 47.830 245.152 47.927 L 260.388 48.023 260.388 55.590 L 260.388 63.158 267.959 63.158 L 275.531 63.158 275.531 70.690 C 275.531 79.655,274.502 78.670,283.871 78.670 L 291.043 78.670 291.043 85.687 L 291.043 92.704 222.068 92.797 L 153.093 92.890 152.993 100.554 L 152.894 108.218 137.573 108.218 L 122.253 108.218 122.253 115.789 L 122.253 123.361 114.940 123.361 C 109.745 123.361,107.499 123.489,107.184 123.804 C 106.505 124.483,106.561 139.004,107.245 139.571 C 107.607 139.872,112.058 139.963,123.035 139.893 L 138.319 139.797 138.419 132.133 L 138.519 124.469 176.369 124.469 L 214.220 124.469 214.220 131.664 L 214.220 138.859 206.556 138.958 L 198.892 139.058 198.792 146.530 L 198.692 154.001 191.220 154.101 L 183.749 154.201 183.649 161.858 L 183.549 169.514 175.893 169.614 L 168.236 169.714 168.140 184.946 L 168.044 200.179 145.241 200.274 L 122.438 200.369 122.338 208.403 L 122.239 216.436 129.817 216.436 L 137.396 216.436 137.396 231.390 L 137.396 246.345 122.161 246.441 L 106.925 246.537 106.820 253.740 C 106.763 257.701,106.808 261.317,106.920 261.776 L 107.125 262.609 130.479 262.514 L 153.832 262.419 153.932 254.755 L 154.032 247.091 161.042 247.091 L 168.052 247.091 168.057 254.386 C 168.060 258.398,168.197 261.892,168.361 262.150 C 168.590 262.510,170.488 262.596,176.573 262.519 L 184.488 262.419 184.488 246.722 L 184.488 231.025 176.824 230.925 L 169.160 230.825 169.160 223.638 L 169.160 216.451 176.824 216.351 L 184.488 216.251 184.584 201.016 L 184.680 185.780 192.248 185.780 L 199.815 185.780 199.815 178.216 L 199.815 170.652 207.479 170.552 L 215.143 170.452 215.243 162.789 L 215.343 155.125 222.907 155.125 L 230.471 155.125 230.471 147.553 L 230.471 139.982 252.993 139.982 L 275.516 139.982 275.616 147.461 L 275.716 154.940 283.380 155.040 L 291.043 155.140 291.043 162.888 L 291.043 170.637 306.371 170.637 L 321.699 170.637 321.699 178.209 L 321.699 185.780 329.832 185.780 L 337.965 185.780 337.865 177.747 L 337.765 169.714 330.109 169.614 L 322.453 169.514 322.353 161.858 L 322.253 154.201 314.781 154.101 L 307.310 154.001 307.210 146.530 L 307.110 139.058 299.446 138.958 L 291.782 138.859 291.782 124.092 L 291.782 109.326 314.304 109.326 L 336.827 109.326 336.927 116.805 L 337.027 124.284 352.262 124.381 L 367.498 124.477 367.498 132.005 C 367.498 140.966,366.469 139.982,375.838 139.982 L 383.010 139.982 383.010 185.403 L 383.010 230.825 375.346 230.925 L 367.682 231.025 367.583 238.689 L 367.483 246.353 352.724 246.353 L 337.965 246.353 337.865 238.689 L 337.765 231.025 330.109 230.925 L 322.453 230.825 322.353 223.169 L 322.253 215.512 314.781 215.413 L 307.310 215.313 307.210 207.841 L 307.110 200.369 276.085 200.369 L 245.060 200.369 244.960 207.841 L 244.860 215.313 237.388 215.413 L 229.917 215.512 229.817 223.169 L 229.717 230.825 222.061 230.925 L 214.404 231.025 214.305 238.681 L 214.205 246.338 206.548 246.438 L 198.892 246.537 198.790 269.067 C 198.734 281.459,198.779 291.971,198.889 292.428 C 199.090 293.257,199.116 293.259,206.655 293.259 L 214.220 293.259 214.220 300.824 L 214.220 308.388 221.884 308.487 L 229.548 308.587 229.647 316.251 L 229.747 323.915 237.311 323.915 L 244.875 323.915 244.875 331.117 L 244.875 338.319 237.304 338.319 L 229.732 338.319 229.732 345.891 L 229.732 353.463 176.554 353.463 L 123.376 353.463 123.276 345.983 L 123.176 338.504 92.613 338.410 L 62.050 338.315 62.050 331.145 C 62.050 327.202,61.949 323.713,61.826 323.391 C 61.625 322.867,59.246 322.807,38.742 322.807 L 15.882 322.807 15.882 315.612 L 15.882 308.418 23.546 308.318 L 31.210 308.218 31.310 300.746 L 31.410 293.275 38.881 293.175 L 46.353 293.075 46.453 285.418 L 46.552 277.762 54.209 277.662 L 61.865 277.562 61.962 262.327 L 62.058 247.091 69.626 247.091 L 77.193 247.091 77.193 208.864 L 77.193 170.637 84.725 170.637 C 91.253 170.637,92.287 170.559,92.481 170.053 C 92.605 169.732,92.705 155.940,92.705 139.405 L 92.705 109.341 100.185 109.241 L 107.664 109.141 107.760 93.906 L 107.857 78.670 115.166 78.670 C 124.218 78.670,123.361 79.528,123.361 70.471 L 123.361 63.158 130.933 63.158 L 138.504 63.158 138.504 55.590 L 138.504 48.023 153.740 47.927 L 168.975 47.830 169.075 40.166 L 169.175 32.502 199.446 32.502 L 229.717 32.502 229.817 40.166 M337.027 177.655 L 337.027 185.226 329.640 185.226 L 322.253 185.226 322.152 178.035 C 322.097 174.080,322.135 170.627,322.236 170.363 C 322.381 169.986,323.998 169.904,329.724 169.983 L 337.027 170.083 337.027 177.655 " stroke="none" fill="#04b440" fill-rule="evenodd"></path><path id="path3" d="M337.380 17.083 C 337.283 17.337,337.246 24.193,337.299 32.318 L 337.396 47.091 345.060 47.191 L 352.724 47.291 352.724 31.956 L 352.724 16.620 345.141 16.620 C 339.410 16.620,337.514 16.733,337.380 17.083 M352.266 32.041 L 352.363 46.907 345.157 46.907 L 337.950 46.907 337.950 31.940 L 337.950 16.974 345.060 17.074 L 352.170 17.175 352.266 32.041 M168.706 39.612 L 168.606 47.091 153.370 47.188 L 138.135 47.284 138.135 54.593 C 138.135 63.645,138.991 62.789,129.943 62.789 L 122.638 62.789 122.538 70.268 L 122.438 77.747 115.051 77.932 L 107.664 78.116 107.479 93.259 L 107.295 108.403 99.723 108.587 L 92.151 108.772 91.967 139.243 L 91.782 169.714 84.303 169.814 L 76.824 169.914 76.818 207.856 C 76.815 228.725,76.683 246.003,76.524 246.252 C 76.316 246.580,74.196 246.734,68.866 246.806 L 61.496 246.907 61.311 262.050 L 61.127 277.193 53.655 277.293 L 46.183 277.393 46.083 284.865 L 45.983 292.336 38.412 292.521 L 30.840 292.705 30.656 300.277 L 30.471 307.849 22.984 307.949 L 15.498 308.049 15.597 315.705 L 15.697 323.361 38.412 323.546 L 61.127 323.730 61.311 331.117 L 61.496 338.504 91.967 338.689 L 122.438 338.873 122.622 346.445 L 122.807 354.017 176.362 354.017 L 229.917 354.017 230.102 346.445 L 230.286 338.873 237.858 338.689 L 245.429 338.504 245.530 331.350 C 245.657 322.326,246.497 323.176,237.451 323.176 L 230.117 323.176 230.017 315.697 L 229.917 308.218 222.530 308.033 L 215.143 307.849 215.043 300.674 C 214.917 291.678,215.770 292.521,206.785 292.521 L 199.440 292.521 199.536 269.714 L 199.631 246.907 207.202 246.722 L 214.774 246.537 214.874 239.066 L 214.974 231.594 222.445 231.494 L 229.917 231.394 230.102 223.823 L 230.286 216.251 237.858 216.066 L 245.429 215.882 245.614 208.310 L 245.799 200.739 276.085 200.739 L 306.371 200.739 306.556 208.310 L 306.741 215.882 314.312 216.066 L 321.884 216.251 322.068 223.823 L 322.253 231.394 329.725 231.494 L 337.196 231.594 337.296 239.066 L 337.396 246.537 352.724 246.537 L 368.052 246.537 368.152 239.066 L 368.252 231.594 375.723 231.494 L 383.195 231.394 383.195 185.411 L 383.195 139.428 375.723 139.328 L 368.252 139.228 368.152 131.756 L 368.052 124.284 352.909 124.100 L 337.765 123.915 337.561 116.343 C 337.449 112.179,337.325 108.729,337.284 108.677 C 337.244 108.624,326.948 108.624,314.404 108.677 L 291.597 108.772 291.501 124.000 L 291.405 139.228 298.888 139.328 L 306.371 139.428 306.472 146.602 C 306.597 155.560,305.764 154.718,314.628 154.840 L 321.884 154.940 321.984 162.423 L 322.084 169.907 306.841 169.810 L 291.597 169.714 291.413 162.327 L 291.228 154.940 283.841 154.755 L 276.454 154.571 276.354 147.315 C 276.278 141.795,276.136 139.961,275.759 139.648 C 275.404 139.354,268.874 139.264,252.775 139.332 L 230.286 139.428 230.186 146.907 C 230.131 151.020,230.048 154.419,230.002 154.459 C 229.955 154.499,226.510 154.624,222.345 154.736 L 214.774 154.940 214.674 162.412 L 214.574 169.883 207.102 169.983 L 199.631 170.083 199.446 177.655 L 199.261 185.226 191.690 185.411 L 184.118 185.596 183.934 200.739 L 183.749 215.882 176.262 215.982 L 168.775 216.082 168.875 223.738 L 168.975 231.394 176.454 231.494 L 183.934 231.594 183.934 246.737 L 183.934 261.880 176.454 261.781 L 168.975 261.681 168.790 254.294 L 168.606 246.907 161.034 246.907 L 153.463 246.907 153.363 254.389 L 153.263 261.871 130.463 261.776 L 107.664 261.681 107.664 254.294 L 107.664 246.907 122.807 246.722 L 137.950 246.537 137.950 231.394 L 137.950 216.251 130.580 216.151 C 125.250 216.078,123.130 215.925,122.922 215.597 C 122.428 214.820,122.560 201.503,123.066 200.997 C 123.401 200.662,129.032 200.554,146.145 200.554 L 168.782 200.554 168.879 185.319 L 168.975 170.083 176.447 169.983 L 183.918 169.883 184.018 162.412 L 184.118 154.940 191.690 154.755 L 199.261 154.571 199.446 146.999 L 199.631 139.428 207.202 139.243 L 214.774 139.058 214.774 131.671 L 214.774 124.284 176.462 124.190 L 138.150 124.096 138.050 131.577 L 137.950 139.058 122.807 139.058 L 107.664 139.058 107.664 131.671 L 107.664 124.284 115.051 124.100 L 122.438 123.915 122.538 116.741 C 122.602 112.211,122.789 109.386,123.045 109.077 C 123.370 108.685,126.429 108.587,138.357 108.587 L 153.263 108.587 153.363 101.108 L 153.463 93.629 222.345 93.444 L 291.228 93.259 291.228 85.688 L 291.228 78.116 283.756 78.016 L 276.285 77.916 276.185 70.445 L 276.085 62.973 268.829 62.873 C 259.965 62.751,260.799 63.593,260.673 54.635 L 260.572 47.461 245.429 47.276 L 230.286 47.091 230.186 39.612 L 230.086 32.133 199.446 32.133 L 168.806 32.133 168.706 39.612 M229.817 40.166 L 229.917 47.830 245.152 47.927 L 260.388 48.023 260.388 55.590 L 260.388 63.158 267.959 63.158 L 275.531 63.158 275.531 70.690 C 275.531 79.655,274.502 78.670,283.871 78.670 L 291.043 78.670 291.043 85.687 L 291.043 92.704 222.068 92.797 L 153.093 92.890 152.993 100.554 L 152.894 108.218 137.573 108.218 L 122.253 108.218 122.253 115.789 L 122.253 123.361 114.940 123.361 C 109.745 123.361,107.499 123.489,107.184 123.804 C 106.505 124.483,106.561 139.004,107.245 139.571 C 107.607 139.872,112.058 139.963,123.035 139.893 L 138.319 139.797 138.419 132.133 L 138.519 124.469 176.369 124.469 L 214.220 124.469 214.220 131.664 L 214.220 138.859 206.556 138.958 L 198.892 139.058 198.792 146.530 L 198.692 154.001 191.220 154.101 L 183.749 154.201 183.649 161.858 L 183.549 169.514 175.893 169.614 L 168.236 169.714 168.140 184.946 L 168.044 200.179 145.241 200.274 L 122.438 200.369 122.338 208.403 L 122.239 216.436 129.817 216.436 L 137.396 216.436 137.396 231.390 L 137.396 246.345 122.161 246.441 L 106.925 246.537 106.820 253.740 C 106.763 257.701,106.808 261.317,106.920 261.776 L 107.125 262.609 130.479 262.514 L 153.832 262.419 153.932 254.755 L 154.032 247.091 161.042 247.091 L 168.052 247.091 168.057 254.386 C 168.060 258.398,168.197 261.892,168.361 262.150 C 168.590 262.510,170.488 262.596,176.573 262.519 L 184.488 262.419 184.488 246.722 L 184.488 231.025 176.824 230.925 L 169.160 230.825 169.160 223.638 L 169.160 216.451 176.824 216.351 L 184.488 216.251 184.584 201.016 L 184.680 185.780 192.248 185.780 L 199.815 185.780 199.815 178.216 L 199.815 170.652 207.479 170.552 L 215.143 170.452 215.243 162.789 L 215.343 155.125 222.907 155.125 L 230.471 155.125 230.471 147.553 L 230.471 139.982 252.993 139.982 L 275.516 139.982 275.616 147.461 L 275.716 154.940 283.380 155.040 L 291.043 155.140 291.043 162.888 L 291.043 170.637 306.371 170.637 L 321.699 170.637 321.699 178.209 L 321.699 185.780 329.832 185.780 L 337.965 185.780 337.865 177.747 L 337.765 169.714 330.109 169.614 L 322.453 169.514 322.353 161.858 L 322.253 154.201 314.781 154.101 L 307.310 154.001 307.210 146.530 L 307.110 139.058 299.446 138.958 L 291.782 138.859 291.782 124.092 L 291.782 109.326 314.304 109.326 L 336.827 109.326 336.927 116.805 L 337.027 124.284 352.262 124.381 L 367.498 124.477 367.498 132.005 C 367.498 140.966,366.469 139.982,375.838 139.982 L 383.010 139.982 383.010 185.403 L 383.010 230.825 375.346 230.925 L 367.682 231.025 367.583 238.689 L 367.483 246.353 352.724 246.353 L 337.965 246.353 337.865 238.689 L 337.765 231.025 330.109 230.925 L 322.453 230.825 322.353 223.169 L 322.253 215.512 314.781 215.413 L 307.310 215.313 307.210 207.841 L 307.110 200.369 276.085 200.369 L 245.060 200.369 244.960 207.841 L 244.860 215.313 237.388 215.413 L 229.917 215.512 229.817 223.169 L 229.717 230.825 222.061 230.925 L 214.404 231.025 214.305 238.681 L 214.205 246.338 206.548 246.438 L 198.892 246.537 198.790 269.067 C 198.734 281.459,198.779 291.971,198.889 292.428 C 199.090 293.257,199.116 293.259,206.655 293.259 L 214.220 293.259 214.220 300.824 L 214.220 308.388 221.884 308.487 L 229.548 308.587 229.647 316.251 L 229.747 323.915 237.311 323.915 L 244.875 323.915 244.875 331.117 L 244.875 338.319 237.304 338.319 L 229.732 338.319 229.732 345.891 L 229.732 353.463 176.554 353.463 L 123.376 353.463 123.276 345.983 L 123.176 338.504 92.613 338.410 L 62.050 338.315 62.050 331.145 C 62.050 327.202,61.949 323.713,61.826 323.391 C 61.625 322.867,59.246 322.807,38.742 322.807 L 15.882 322.807 15.882 315.612 L 15.882 308.418 23.546 308.318 L 31.210 308.218 31.310 300.746 L 31.410 293.275 38.881 293.175 L 46.353 293.075 46.453 285.418 L 46.552 277.762 54.209 277.662 L 61.865 277.562 61.962 262.327 L 62.058 247.091 69.626 247.091 L 77.193 247.091 77.193 208.864 L 77.193 170.637 84.725 170.637 C 91.253 170.637,92.287 170.559,92.481 170.053 C 92.605 169.732,92.705 155.940,92.705 139.405 L 92.705 109.341 100.185 109.241 L 107.664 109.141 107.760 93.906 L 107.857 78.670 115.166 78.670 C 124.218 78.670,123.361 79.528,123.361 70.471 L 123.361 63.158 130.933 63.158 L 138.504 63.158 138.504 55.590 L 138.504 48.023 153.740 47.927 L 168.975 47.830 169.075 40.166 L 169.175 32.502 199.446 32.502 L 229.717 32.502 229.817 40.166 M337.027 177.655 L 337.027 185.226 329.640 185.226 L 322.253 185.226 322.152 178.035 C 322.097 174.080,322.135 170.627,322.236 170.363 C 322.381 169.986,323.998 169.904,329.724 169.983 L 337.027 170.083 337.027 177.655 " stroke="none" fill="#04b440" fill-rule="evenodd"></path><path id="path4" d="M337.380 17.083 C 337.283 17.337,337.246 24.193,337.299 32.318 L 337.396 47.091 345.060 47.191 L 352.724 47.291 352.724 31.956 L 352.724 16.620 345.141 16.620 C 339.410 16.620,337.514 16.733,337.380 17.083 M352.266 32.041 L 352.363 46.907 345.157 46.907 L 337.950 46.907 337.950 31.940 L 337.950 16.974 345.060 17.074 L 352.170 17.175 352.266 32.041 M168.706 39.612 L 168.606 47.091 153.370 47.188 L 138.135 47.284 138.135 54.593 C 138.135 63.645,138.991 62.789,129.943 62.789 L 122.638 62.789 122.538 70.268 L 122.438 77.747 115.051 77.932 L 107.664 78.116 107.479 93.259 L 107.295 108.403 99.723 108.587 L 92.151 108.772 91.967 139.243 L 91.782 169.714 84.303 169.814 L 76.824 169.914 76.818 207.856 C 76.815 228.725,76.683 246.003,76.524 246.252 C 76.316 246.580,74.196 246.734,68.866 246.806 L 61.496 246.907 61.311 262.050 L 61.127 277.193 53.655 277.293 L 46.183 277.393 46.083 284.865 L 45.983 292.336 38.412 292.521 L 30.840 292.705 30.656 300.277 L 30.471 307.849 22.984 307.949 L 15.498 308.049 15.597 315.705 L 15.697 323.361 38.412 323.546 L 61.127 323.730 61.311 331.117 L 61.496 338.504 91.967 338.689 L 122.438 338.873 122.622 346.445 L 122.807 354.017 176.362 354.017 L 229.917 354.017 230.102 346.445 L 230.286 338.873 237.858 338.689 L 245.429 338.504 245.530 331.350 C 245.657 322.326,246.497 323.176,237.451 323.176 L 230.117 323.176 230.017 315.697 L 229.917 308.218 222.530 308.033 L 215.143 307.849 215.043 300.674 C 214.917 291.678,215.770 292.521,206.785 292.521 L 199.440 292.521 199.536 269.714 L 199.631 246.907 207.202 246.722 L 214.774 246.537 214.874 239.066 L 214.974 231.594 222.445 231.494 L 229.917 231.394 230.102 223.823 L 230.286 216.251 237.858 216.066 L 245.429 215.882 245.614 208.310 L 245.799 200.739 276.085 200.739 L 306.371 200.739 306.556 208.310 L 306.741 215.882 314.312 216.066 L 321.884 216.251 322.068 223.823 L 322.253 231.394 329.725 231.494 L 337.196 231.594 337.296 239.066 L 337.396 246.537 352.724 246.537 L 368.052 246.537 368.152 239.066 L 368.252 231.594 375.723 231.494 L 383.195 231.394 383.195 185.411 L 383.195 139.428 375.723 139.328 L 368.252 139.228 368.152 131.756 L 368.052 124.284 352.909 124.100 L 337.765 123.915 337.561 116.343 C 337.449 112.179,337.325 108.729,337.284 108.677 C 337.244 108.624,326.948 108.624,314.404 108.677 L 291.597 108.772 291.501 124.000 L 291.405 139.228 298.888 139.328 L 306.371 139.428 306.472 146.602 C 306.597 155.560,305.764 154.718,314.628 154.840 L 321.884 154.940 321.984 162.423 L 322.084 169.907 306.841 169.810 L 291.597 169.714 291.413 162.327 L 291.228 154.940 283.841 154.755 L 276.454 154.571 276.354 147.315 C 276.278 141.795,276.136 139.961,275.759 139.648 C 275.404 139.354,268.874 139.264,252.775 139.332 L 230.286 139.428 230.186 146.907 C 230.131 151.020,230.048 154.419,230.002 154.459 C 229.955 154.499,226.510 154.624,222.345 154.736 L 214.774 154.940 214.674 162.412 L 214.574 169.883 207.102 169.983 L 199.631 170.083 199.446 177.655 L 199.261 185.226 191.690 185.411 L 184.118 185.596 183.934 200.739 L 183.749 215.882 176.262 215.982 L 168.775 216.082 168.875 223.738 L 168.975 231.394 176.454 231.494 L 183.934 231.594 183.934 246.737 L 183.934 261.880 176.454 261.781 L 168.975 261.681 168.790 254.294 L 168.606 246.907 161.034 246.907 L 153.463 246.907 153.363 254.389 L 153.263 261.871 130.463 261.776 L 107.664 261.681 107.664 254.294 L 107.664 246.907 122.807 246.722 L 137.950 246.537 137.950 231.394 L 137.950 216.251 130.580 216.151 C 125.250 216.078,123.130 215.925,122.922 215.597 C 122.428 214.820,122.560 201.503,123.066 200.997 C 123.401 200.662,129.032 200.554,146.145 200.554 L 168.782 200.554 168.879 185.319 L 168.975 170.083 176.447 169.983 L 183.918 169.883 184.018 162.412 L 184.118 154.940 191.690 154.755 L 199.261 154.571 199.446 146.999 L 199.631 139.428 207.202 139.243 L 214.774 139.058 214.774 131.671 L 214.774 124.284 176.462 124.190 L 138.150 124.096 138.050 131.577 L 137.950 139.058 122.807 139.058 L 107.664 139.058 107.664 131.671 L 107.664 124.284 115.051 124.100 L 122.438 123.915 122.538 116.741 C 122.602 112.211,122.789 109.386,123.045 109.077 C 123.370 108.685,126.429 108.587,138.357 108.587 L 153.263 108.587 153.363 101.108 L 153.463 93.629 222.345 93.444 L 291.228 93.259 291.228 85.688 L 291.228 78.116 283.756 78.016 L 276.285 77.916 276.185 70.445 L 276.085 62.973 268.829 62.873 C 259.965 62.751,260.799 63.593,260.673 54.635 L 260.572 47.461 245.429 47.276 L 230.286 47.091 230.186 39.612 L 230.086 32.133 199.446 32.133 L 168.806 32.133 168.706 39.612 M229.817 40.166 L 229.917 47.830 245.152 47.927 L 260.388 48.023 260.388 55.590 L 260.388 63.158 267.959 63.158 L 275.531 63.158 275.531 70.690 C 275.531 79.655,274.502 78.670,283.871 78.670 L 291.043 78.670 291.043 85.687 L 291.043 92.704 222.068 92.797 L 153.093 92.890 152.993 100.554 L 152.894 108.218 137.573 108.218 L 122.253 108.218 122.253 115.789 L 122.253 123.361 114.940 123.361 C 109.745 123.361,107.499 123.489,107.184 123.804 C 106.505 124.483,106.561 139.004,107.245 139.571 C 107.607 139.872,112.058 139.963,123.035 139.893 L 138.319 139.797 138.419 132.133 L 138.519 124.469 176.369 124.469 L 214.220 124.469 214.220 131.664 L 214.220 138.859 206.556 138.958 L 198.892 139.058 198.792 146.530 L 198.692 154.001 191.220 154.101 L 183.749 154.201 183.649 161.858 L 183.549 169.514 175.893 169.614 L 168.236 169.714 168.140 184.946 L 168.044 200.179 145.241 200.274 L 122.438 200.369 122.338 208.403 L 122.239 216.436 129.817 216.436 L 137.396 216.436 137.396 231.390 L 137.396 246.345 122.161 246.441 L 106.925 246.537 106.820 253.740 C 106.763 257.701,106.808 261.317,106.920 261.776 L 107.125 262.609 130.479 262.514 L 153.832 262.419 153.932 254.755 L 154.032 247.091 161.042 247.091 L 168.052 247.091 168.057 254.386 C 168.060 258.398,168.197 261.892,168.361 262.150 C 168.590 262.510,170.488 262.596,176.573 262.519 L 184.488 262.419 184.488 246.722 L 184.488 231.025 176.824 230.925 L 169.160 230.825 169.160 223.638 L 169.160 216.451 176.824 216.351 L 184.488 216.251 184.584 201.016 L 184.680 185.780 192.248 185.780 L 199.815 185.780 199.815 178.216 L 199.815 170.652 207.479 170.552 L 215.143 170.452 215.243 162.789 L 215.343 155.125 222.907 155.125 L 230.471 155.125 230.471 147.553 L 230.471 139.982 252.993 139.982 L 275.516 139.982 275.616 147.461 L 275.716 154.940 283.380 155.040 L 291.043 155.140 291.043 162.888 L 291.043 170.637 306.371 170.637 L 321.699 170.637 321.699 178.209 L 321.699 185.780 329.832 185.780 L 337.965 185.780 337.865 177.747 L 337.765 169.714 330.109 169.614 L 322.453 169.514 322.353 161.858 L 322.253 154.201 314.781 154.101 L 307.310 154.001 307.210 146.530 L 307.110 139.058 299.446 138.958 L 291.782 138.859 291.782 124.092 L 291.782 109.326 314.304 109.326 L 336.827 109.326 336.927 116.805 L 337.027 124.284 352.262 124.381 L 367.498 124.477 367.498 132.005 C 367.498 140.966,366.469 139.982,375.838 139.982 L 383.010 139.982 383.010 185.403 L 383.010 230.825 375.346 230.925 L 367.682 231.025 367.583 238.689 L 367.483 246.353 352.724 246.353 L 337.965 246.353 337.865 238.689 L 337.765 231.025 330.109 230.925 L 322.453 230.825 322.353 223.169 L 322.253 215.512 314.781 215.413 L 307.310 215.313 307.210 207.841 L 307.110 200.369 276.085 200.369 L 245.060 200.369 244.960 207.841 L 244.860 215.313 237.388 215.413 L 229.917 215.512 229.817 223.169 L 229.717 230.825 222.061 230.925 L 214.404 231.025 214.305 238.681 L 214.205 246.338 206.548 246.438 L 198.892 246.537 198.790 269.067 C 198.734 281.459,198.779 291.971,198.889 292.428 C 199.090 293.257,199.116 293.259,206.655 293.259 L 214.220 293.259 214.220 300.824 L 214.220 308.388 221.884 308.487 L 229.548 308.587 229.647 316.251 L 229.747 323.915 237.311 323.915 L 244.875 323.915 244.875 331.117 L 244.875 338.319 237.304 338.319 L 229.732 338.319 229.732 345.891 L 229.732 353.463 176.554 353.463 L 123.376 353.463 123.276 345.983 L 123.176 338.504 92.613 338.410 L 62.050 338.315 62.050 331.145 C 62.050 327.202,61.949 323.713,61.826 323.391 C 61.625 322.867,59.246 322.807,38.742 322.807 L 15.882 322.807 15.882 315.612 L 15.882 308.418 23.546 308.318 L 31.210 308.218 31.310 300.746 L 31.410 293.275 38.881 293.175 L 46.353 293.075 46.453 285.418 L 46.552 277.762 54.209 277.662 L 61.865 277.562 61.962 262.327 L 62.058 247.091 69.626 247.091 L 77.193 247.091 77.193 208.864 L 77.193 170.637 84.725 170.637 C 91.253 170.637,92.287 170.559,92.481 170.053 C 92.605 169.732,92.705 155.940,92.705 139.405 L 92.705 109.341 100.185 109.241 L 107.664 109.141 107.760 93.906 L 107.857 78.670 115.166 78.670 C 124.218 78.670,123.361 79.528,123.361 70.471 L 123.361 63.158 130.933 63.158 L 138.504 63.158 138.504 55.590 L 138.504 48.023 153.740 47.927 L 168.975 47.830 169.075 40.166 L 169.175 32.502 199.446 32.502 L 229.717 32.502 229.817 40.166 M337.027 177.655 L 337.027 185.226 329.640 185.226 L 322.253 185.226 322.152 178.035 C 322.097 174.080,322.135 170.627,322.236 170.363 C 322.381 169.986,323.998 169.904,329.724 169.983 L 337.027 170.083 337.027 177.655 " stroke="none" fill="#04b440" fill-rule="evenodd"></path></g></svg>